# xmcd CD database file generated by OrangeCD 6.3
#
# Track frame offsets:
#	150
#	18997
#	33102
#	45413
#	58935
#	75309
#	89913
#	103856
#	122236
#	141208
#
# Disc length: 2134 seconds
#
# Revision: 1
# Processed by: cddbd v1.5.2PL0 Copyright (c) Steve Scherf et al.
# Submitted via: OrangeCD 6.3
#
DISCID=8108540a
DTITLE=Brandon Sandefur - Walking Backwards
DYEAR=2000
DGENRE=Country
TTITLE0=Right Between The Lies
TTITLE1=Walking Backwards
TTITLE2=Now You're Tonkin
TTITLE3=Same Old Tear
TTITLE4=Don't Talk Back To Me
TTITLE5=The Bull
TTITLE6=Rancho Bebop
TTITLE7=For All I Know
TTITLE8=Marguerita
TTITLE9=Driven
EXTD=
EXTT0=
EXTT1=
EXTT2=
EXTT3=
EXTT4=
EXTT5=
EXTT6=
EXTT7=
EXTT8=
EXTT9=
PLAYORDER=
